<?xml version="1.0" encoding="utf-8"?>
<?xml-stylesheet type="text/xsl" href="rss1.xsl"?>
<rss version="2.0" xmlns:atom="http://www.w3.org/2005/Atom" xmlns:content="http://purl.org/rss/1.0/modules/content/" xmlns:dc="http://purl.org/dc/elements/1.1/" xmlns:media="http://search.yahoo.com/mrss/">
<channel>
 <title>Getty</title>
 <link>http://www.gettyimg.com/</link>
 <atom:link href="http://www.gettyimg.com/" rel="self" type="application/rss+xml" />

 
                <item>
                <title><![CDATA[【Apple Music】WEB-RiP - Olivia Rodrigo - Can’t Catch Me Now (from The Hunger Games: TBSS) [Apple Music | AVC | 1080p | AAC 256kbits]]]></title>
                <link><![CDATA[https://sharemania.us/threads/olivia-rodrigo-can%E2%80%99t-catch-me-now-from-the-hunger-games-tbss-apple-music-avc-1080p-aac-256kbits.232211/]]></link>
                <description><![CDATA[<article>
<blockquote class="messageText SelectQuoteContainer ugc baseHtml">
<img src="https://i.ibb.co/Vj2RXdP/Can-t-Catch-Me-Now-from-The-Hunger-Games-The-Ballad-of-Songbirds-Snakes-Apple-Music-1080p-AAC-WKS-mk.jpg" class="bbCodeImage LbImage" alt="[​IMG]" data-url="https://i.ibb.co/Vj2RXdP/Can-t-Catch-Me-Now-from-The-Hunger-Games-The-Ballad-of-Songbirds-Snakes-Apple-Music-1080p-AAC-WKS-mk.jpg" style=""><br>
<br>
<div class="ToggleTriggerAnchor bbCodeSpoilerContainer">
<button type="button" class="button bbCodeSpoilerButton ToggleTrigger Tooltip JsOnly" data-target="> .SpoilerTarget"><span>Spoiler: <span class="SpoilerTitle">MediaInfo</span></span></button>
<div class="SpoilerTarget bbCodeSpoilerText">
<div class="bbCodeBlock bbCodeCode">
<div class="type">Code:</div>
<pre>General
Unique ID                                : 282203864160587733086768460338103205987 (0xD44E7CBBD1425FC9A961789AFB564063)
Complete name                            : Can’t.Catch.Me.Now.(from.The.Hunger.Games.The.Ballad.of.Songbirds.&amp;.Snakes).AppleMusic.1080p.AAC-WKS.mkv
Format                                   : Matroska
Format version                           : Version 4
File size                                : 272 MiB
Duration                                 : 3 min 36 s
Overall bit rate                         : 10.5 Mb/s
Frame rate                               : 23.976 FPS
Movie name                               : Can’t Catch Me Now (from The Hunger Games: The Ballad of Songbirds &amp; Snakes)
Recorded date                            : 2023-11-13 08:00:00 UTC
Encoded date                             : 2023-11-14 11:41:34 UTC
Writing application                      : WKSmerge v300.0.0 SASUKE DUCK  (' SASUKE DUCK ') 64-bit
Writing library                          : libebml v1.4.2 + libmatroska v1.6.4
Copyright                                : ℗ 2023 Olivia Rodrigo, under exclusive license to Geffen Records
Cover                                    : Yes
Attachments                              : cover.jpg
ARTIST                                   : Olivia Rodrigo

Video
ID                                       : 1
Format                                   : AVC
Format/Info                              : Advanced Video Codec
Format profile                           : High@L4
Format settings                          : CABAC / 4 Ref Frames
Format settings, CABAC                   : Yes
Format settings, Reference frames        : 4 frames
Codec ID                                 : V_MPEG4/ISO/AVC
Duration                                 : 3 min 36 s
Bit rate                                 : 10.2 Mb/s
Width                                    : 1 920 pixels
Height                                   : 1 080 pixels
Display aspect ratio                     : 16:9
Frame rate mode                          : Constant
Frame rate                               : 23.976 (23976/1000) FPS
Color space                              : YUV
Chroma subsampling                       : 4:2:0
Bit depth                                : 8 bits
Scan type                                : Progressive
Bits/(Pixel*Frame)                       : 0.206
Stream size                              : 265 MiB (97%)
Language                                 : English
Default                                  : Yes
Forced                                   : No
Color range                              : Limited
Color primaries                          : BT.709
Transfer characteristics                 : BT.709
Matrix coefficients                      : BT.709

Audio
ID                                       : 2
Format                                   : AAC LC
Format/Info                              : Advanced Audio Codec Low Complexity
Codec ID                                 : A_AAC-2
Duration                                 : 3 min 36 s
Bit rate                                 : 265 kb/s
Channel(s)                               : 2 channels
Channel layout                           : L R
Sampling rate                            : 48.0 kHz
Frame rate                               : 46.875 FPS (1024 SPF)
Compression mode                         : Lossy
Stream size                              : 6.92 MiB (3%)
Default                                  : Yes
Forced                                   : No

Text
ID                                       : 3
Format                                   : UTF-8
Codec ID                                 : S_TEXT/UTF8
Codec ID/Info                            : UTF-8 Plain Text
Duration                                 : 3 min 35 s
Bit rate                                 : 95 b/s
Frame rate                               : 0.270 FPS
Count of elements                        : 58
Stream size                              : 2.50 KiB (0%)
Language                                 : English
Default                                  : Yes
Forced                                   : No</pre>
</div></div>
</div><br>
<div class="bbCodeBlock bbCodeVfcHH HiddenContent">
<div class="attribution type">Hidden Content:</div>
<blockquote>You must reply before you can see the hidden data contained here.</blockquote>
</div>
<div class="messageTextEndMarker">&nbsp;</div>
</blockquote>
</article>]]></description>
                <author><![CDATA[SonMaxime]]></author>
                </item>

                </channel></rss>